<svg id="Layer_1" data-name="Layer 1" xmlns="http://www.w3.org/2000/svg" viewBox="0 0 1520.59 456.95"><defs><style>.cls-1{fill:#009245;}.cls-2{fill:#39b54a;}.cls-3{fill:#8cc63f;}.cls-4{fill:#fff;}</style></defs><title>logo</title><path class="cls-1" d="M569.76,735.21c-13.58,14.49-118,22.42-241.38-97.48C346.57,684.47,444.84,756.36,499.8,758.5c-92.91,21.4-152.51,10.07-220.2-50.62-5.52-12.22-4.69-59.23-4.69-59.23l-35.64,15.62S200.45,607.72,210,568.06s35.82-71.66,35.82-71.66l-46.12,2.21S211.32,406,320.81,344.21s202-22.14,237.94,6.28c-84,32.74-157.43,34.65-181.29,145.4a111.91,111.91,0,0,0-2.57,30c4.12,72,77.28,113.2,95.87,130.43C491,675.1,562.27,721.91,569.76,735.21Z" transform="translate(-199.7 -311.52)"/><path class="cls-1" d="M641.3,500c-2,27-43,116-145,94,40-23,120-111-17-178,0,0,1.92-20.18,90.57-37.94a24.54,24.54,0,0,1,11.4.39C643.3,395.87,643.24,473.79,641.3,500Z" transform="translate(-199.7 -311.52)"/><path class="cls-2" d="M515.3,492c-6-35-35-58-67-54,0,0-38,5-42,45-5,50,13,93,47,96C489.3,581,521.3,527,515.3,492Zm-18,13c-13,45-60,31-67,17-6.06-12.11-14.35-28.7-6.78-49.79a32.53,32.53,0,0,1,30.07-21.69,26.23,26.23,0,0,1,5.71.48S510.3,459,497.3,505Z" transform="translate(-199.7 -311.52)"/><path class="cls-3" d="M463.3,512c-21,3-30-20-21-37,5-14,21,0,21,0s7.22-11.24,15.19-3.51a14.27,14.27,0,0,1,3.8,6.74C485.9,492.11,482.74,511,463.3,512Z" transform="translate(-199.7 -311.52)"/><path class="cls-1" d="M699.23,356.53V466.4L770.6,356.53h45.64L743.62,468.32,817,585.19H768.33L699.23,471.5V585.19H661.15V356.53Z" transform="translate(-199.7 -311.52)"/><path class="cls-1" d="M922.66,356.53l77.17,228.66H957.46l-16.64-54.45H862.14L846,585.19H805.9l76.41-228.66ZM874.49,490h54L901,402.07Z" transform="translate(-199.7 -311.52)"/><path class="cls-1" d="M1050.51,356.53V466.4l71.37-109.87h45.64L1094.9,468.32l73.38,116.87h-48.67l-69.1-113.69V585.19h-38.08V356.53Z" transform="translate(-199.7 -311.52)"/><path class="cls-1" d="M1273.94,356.53l77.17,228.66h-42.37l-16.64-54.45h-78.68l-16.14,54.45h-40.1l76.41-228.66ZM1225.78,490h54l-27.48-87.9Z" transform="translate(-199.7 -311.52)"/><path class="cls-1" d="M1446.43,356.53a.76.76,0,0,0,.63.32h10.22a73.52,73.52,0,0,1,9.58.64,86.36,86.36,0,0,1,17,3,48.72,48.72,0,0,1,15.76,7.81q13.36,9.87,19,27.07a119.38,119.38,0,0,1,5.93,36,106.4,106.4,0,0,1-4.67,33.12,59,59,0,0,1-16.26,26.44,47.74,47.74,0,0,1-20.81,11.3,126.77,126.77,0,0,1-22.82,3.35h-12.11l-46.14-.32v79.93h-38.08V356.53Zm-.5,40.77H1401.8v67.51h46.4q13.86,0,24-6.84t10.09-26.6q.51-22-10.72-27.86a54.19,54.19,0,0,0-25.59-5.89Z" transform="translate(-199.7 -311.52)"/><path class="cls-1" d="M1544.28,420.23q6.54-25.16,19.29-40.93T1597,356.85a124,124,0,0,1,15.64-3.5,103.08,103.08,0,0,1,16.14-1.27,96.72,96.72,0,0,1,17.4.95,88,88,0,0,1,16.89,4.14,67.71,67.71,0,0,1,33,22.29q12.86,15.93,18.91,41.09a228.72,228.72,0,0,1,3.91,24.2,236.45,236.45,0,0,1,1.39,25.48q0,13.69-1.26,26.75a187.78,187.78,0,0,1-4,24.84q-6,25.8-19.16,41.56a67.48,67.48,0,0,1-33.8,21.81,96.13,96.13,0,0,1-16.64,3.66A133.7,133.7,0,0,1,1628,590a98.18,98.18,0,0,1-15.64-1.27,127.35,127.35,0,0,1-15.38-3.51,67.44,67.44,0,0,1-33.54-21.81q-13.11-15.76-19.16-41.56a207.84,207.84,0,0,1-3.91-24.21,248.5,248.5,0,0,1-1.39-26.43q0-13.38,1.26-26.59a156,156,0,0,1,4-24Zm39.34,16.24a151.25,151.25,0,0,0-2.53,17.36q-.75,8.76-.75,17.35a175.74,175.74,0,0,0,.88,17.68q.88,8.76,2.4,17a77.53,77.53,0,0,0,9.2,25.48,38.5,38.5,0,0,0,18,15.93,43.1,43.1,0,0,0,9.08,2.86,48.28,48.28,0,0,0,19.16,0,43.1,43.1,0,0,0,9.08-2.86,39.19,39.19,0,0,0,18.16-15.93,72.39,72.39,0,0,0,9.08-25.48q1.52-8.26,2.39-17a175.73,175.73,0,0,0,.89-17.68,172.49,172.49,0,0,0-.89-17.35q-.88-8.76-2.39-17a74.13,74.13,0,0,0-9.08-25.64,37.16,37.16,0,0,0-18.16-15.76,42.54,42.54,0,0,0-9.08-2.87,48.28,48.28,0,0,0-19.16,0,42.54,42.54,0,0,0-9.08,2.87,37.76,37.76,0,0,0-17.9,15.92,83.79,83.79,0,0,0-9.33,25.48Z" transform="translate(-199.7 -311.52)"/><rect class="cls-3" x="461.59" y="330.45" width="1059" height="91"/><path class="cls-4" d="M720.21,676a30.3,30.3,0,0,0-2.45,11.55v2.27c0,.77,0,1.56.07,2.35a24.26,24.26,0,0,0,.91,4.79,11,11,0,0,0,2.31,4.17,7.11,7.11,0,0,0,3.89,2.35,22.47,22.47,0,0,0,4.51.45h.63l17.36-.07v8.75H729.59a43.17,43.17,0,0,1-8.22-.77,17.05,17.05,0,0,1-7.46-3.57,18.25,18.25,0,0,1-5.88-8.37,34.27,34.27,0,0,1-1.82-10.11c0-.75-.06-1.47,0-2.17s.06-1.4.1-2.1q.78-11.89,6.48-17.5t17.11-5.6l17.57-.07V671H730.08Q722.46,671,720.21,676Z" transform="translate(-199.7 -311.52)"/><path class="cls-4" d="M868.61,675.71q7.9.07,9.17,3.64a28.53,28.53,0,0,1,1.19,9.59v2.31l-9.31-.07v-1.54q0-5.11-.8-5.95t-5.85-.84h-1V712.6h-9.73V675.71Z" transform="translate(-199.7 -311.52)"/><path class="cls-4" d="M992,711.65a13.24,13.24,0,0,1-6.48-3.95,15,15,0,0,1-3.25-5.6,26.28,26.28,0,0,1-1.23-6.44v-2.35a6.22,6.22,0,0,1,.07-.94,24.45,24.45,0,0,1,1.23-6.19,14.83,14.83,0,0,1,3.18-5.43,13.11,13.11,0,0,1,6.48-4,30.35,30.35,0,0,1,7.59-.94l14.21-.07v7.7h-12.88a16,16,0,0,0-6.51,1.23c-1.63.76-2.5,2.69-2.59,5.77l22-.07V698h-22q.13,4.83,2.45,5.88a16.37,16.37,0,0,0,6.58,1.05l12.95-.07v7.7H999.58A30.36,30.36,0,0,1,992,711.65Z" transform="translate(-199.7 -311.52)"/><path class="cls-4" d="M1138.74,675.71a32.07,32.07,0,0,1,6.2.73,10.9,10.9,0,0,1,5.35,3,10.7,10.7,0,0,1,2.84,4.62,18.94,18.94,0,0,1,.8,5.46v23h-26.18q-5.67,0-8.68-3.12t-2.73-8.64q.5-6.65,4.69-8.61a23.46,23.46,0,0,1,10-2l12.81-.07q.21-4.55-2.34-5.67a16.2,16.2,0,0,0-6.48-1.12l-16.24-.07v-7.63Zm-7,29.47h12.18v-7.63h-11.48a.58.58,0,0,1-.28.07h-.28a11,11,0,0,0-3.64.73c-1.12.45-1.7,1.49-1.75,3.12-.09,1.82.41,2.89,1.51,3.22a14.79,14.79,0,0,0,3.74.56Z" transform="translate(-199.7 -311.52)"/><path class="cls-4" d="M1263.69,675.71V662.34h9.73v13.37h10.29v7.35h-10.29V698c-.05,3.69.79,5.83,2.52,6.44a22.23,22.23,0,0,0,7.14.91h.63v7.28h-8.89c-3.69,0-6.46-1-8.33-3.08s-2.8-4.85-2.8-8.4V683.06h-6.86v-7.35Z" transform="translate(-199.7 -311.52)"/><path class="cls-4" d="M1387.45,671.51v-9.17h10.22v9.17Zm0,41.09V675.71h10.22V712.6Z" transform="translate(-199.7 -311.52)"/><path class="cls-4" d="M1510.86,675.71l10.22,26.18,10.85-26.18h10.5l-16.38,36.89h-10.5l-15.61-36.89Z" transform="translate(-199.7 -311.52)"/><path class="cls-4" d="M1653.62,711.65a13.17,13.17,0,0,1-6.47-3.95,15,15,0,0,1-3.26-5.6,26.74,26.74,0,0,1-1.22-6.44v-2.35a6.22,6.22,0,0,1,.07-.94,24.88,24.88,0,0,1,1.22-6.19,15,15,0,0,1,3.19-5.43,13,13,0,0,1,6.47-4,30.37,30.37,0,0,1,7.6-.94l14.21-.07v7.7h-12.88a15.94,15.94,0,0,0-6.51,1.23c-1.64.76-2.5,2.69-2.59,5.77l22-.07V698h-22q.13,4.83,2.45,5.88a16.37,16.37,0,0,0,6.58,1.05l13-.07v7.7h-14.21A30.38,30.38,0,0,1,1653.62,711.65Z" transform="translate(-199.7 -311.52)"/></svg>